<svg width="986" height="998" viewBox="0 0 986 998" fill="none" xmlns="http://www.w3.org/2000/svg">
<g filter="url(#filter0_d)">
<path fill-rule="evenodd" clip-rule="evenodd" d="M118.207 466.399C81.9673 466.399 63.8192 510.215 89.4454 535.839L223.729 670.113C242.483 688.865 267.917 699.399 294.437 699.399H365.13C391.65 699.399 417.084 709.934 435.838 728.686L596.877 889.713C615.631 908.465 641.065 919 667.585 919H1056.44C1128.97 919 1165.3 831.302 1114 780.015L1027.61 693.63C1008.2 674.22 1021.95 641.03 1049.4 641.03C1076.85 641.03 1090.6 607.841 1071.19 588.431L875.851 393.111C857.097 374.359 831.663 363.824 805.143 363.824H570.701C544.18 363.824 518.746 353.289 499.993 334.537L464.74 299.287C445.986 280.535 420.552 270 394.032 270H158.88C107.632 270 81.9673 331.963 118.207 368.199L146.968 396.959C172.595 422.583 154.447 466.399 118.207 466.399Z" fill="#2D314D"/>
</g>
<path fill-rule="evenodd" clip-rule="evenodd" d="M256.207 159.399C219.967 159.399 201.819 203.215 227.445 228.839L361.729 363.113C380.483 381.865 405.917 392.399 432.437 392.399H503.13C529.65 392.399 555.084 402.934 573.838 421.686L734.877 582.713C753.631 601.465 779.065 612 805.585 612H1194.44C1266.97 612 1303.3 524.302 1252 473.015L1165.61 386.63C1146.2 367.22 1159.95 334.03 1187.4 334.03C1214.85 334.03 1228.6 300.841 1209.19 281.431L1013.85 86.1105C995.097 67.3585 969.663 56.8239 943.143 56.8239H708.701C682.18 56.8239 656.746 46.2892 637.993 27.5372L602.74 -7.71337C583.986 -26.4654 558.552 -37 532.032 -37H296.88C245.632 -37 219.967 24.9626 256.207 61.1995L284.968 89.9588C310.595 115.583 292.447 159.399 256.207 159.399Z" fill="url(#paint0_linear)"/>
<defs>
<filter id="filter0_d" x="0.448975" y="195" width="1214.57" height="803" filterUnits="userSpaceOnUse" color-interpolation-filters="sRGB">
<feFlood flood-opacity="0" result="BackgroundImageFix"/>
<feColorMatrix in="SourceAlpha" type="matrix" values="0 0 0 0 0 0 0 0 0 0 0 0 0 0 0 0 0 0 127 0"/>
<feOffset dy="2"/>
<feGaussianBlur stdDeviation="38.5"/>
<feColorMatrix type="matrix" values="0 0 0 0 0 0 0 0 0 0 0 0 0 0 0 0 0 0 0.0240111 0"/>
<feBlend mode="normal" in2="BackgroundImageFix" result="effect1_dropShadow"/>
<feBlend mode="normal" in="SourceGraphic" in2="effect1_dropShadow" result="shape"/>
</filter>
<linearGradient id="paint0_linear" x1="-455.913" y1="286.138" x2="76.8341" y2="1298.28" gradientUnits="userSpaceOnUse">
<stop stop-color="#33D35E"/>
<stop offset="1" stop-color="#2AB6D9"/>
</linearGradient>
</defs>
</svg>
