<svg width="1217" height="1153" viewBox="0 0 1217 1153" fill="none" xmlns="http://www.w3.org/2000/svg">
<g filter="url(#filter0_d)">
<path fill-rule="evenodd" clip-rule="evenodd" d="M128.779 503.514C83.1022 503.514 60.2273 558.74 92.5263 591.039L269.405 767.914C288.159 786.667 313.594 797.202 340.115 797.202H450.783C477.304 797.202 502.739 807.737 521.493 826.491L739.719 1044.71C758.472 1063.46 783.907 1074 810.429 1074H1317.64C1406.73 1074 1451.35 966.285 1388.35 903.288L1274.99 789.929C1250.52 765.463 1267.85 723.63 1302.45 723.63V723.63C1337.05 723.63 1354.38 681.798 1329.91 657.332L1076.08 403.511C1057.33 384.758 1031.89 374.223 1005.37 374.223H688.316C661.795 374.223 636.36 363.687 617.606 344.934L557.921 285.25C539.167 266.497 513.732 255.961 487.211 255.961H180.048C115.452 255.961 83.1022 334.062 128.779 379.738L165.032 415.99C197.332 448.288 174.457 503.514 128.779 503.514V503.514Z" fill="#2D314D"/>
</g>
<path fill-rule="evenodd" clip-rule="evenodd" d="M302.714 116.553C257.037 116.553 234.162 171.779 266.461 204.077L443.34 380.952C462.093 399.705 487.528 410.241 514.05 410.241H624.717C651.239 410.241 676.674 420.776 695.427 439.529L913.653 657.75C932.407 676.503 957.842 687.039 984.363 687.039H1491.57C1580.67 687.039 1625.28 579.323 1562.28 516.327L1448.92 402.967C1424.46 378.502 1441.78 336.669 1476.38 336.669V336.669C1510.98 336.669 1528.31 294.837 1503.84 270.371L1250.02 16.5498C1231.26 -2.20335 1205.83 -12.7387 1179.31 -12.7387H862.25C835.729 -12.7387 810.294 -23.2741 791.541 -42.0272L731.855 -101.711C713.101 -120.465 687.666 -131 661.145 -131H353.983C289.386 -131 257.037 -52.8996 302.714 -7.22347L338.967 29.0288C371.266 61.3271 348.391 116.553 302.714 116.553V116.553Z" fill="url(#paint0_linear)"/>
<defs>
<filter id="filter0_d" x="0.406372" y="180.961" width="1494.43" height="972.039" filterUnits="userSpaceOnUse" color-interpolation-filters="sRGB">
<feFlood flood-opacity="0" result="BackgroundImageFix"/>
<feColorMatrix in="SourceAlpha" type="matrix" values="0 0 0 0 0 0 0 0 0 0 0 0 0 0 0 0 0 0 127 0"/>
<feOffset dy="2"/>
<feGaussianBlur stdDeviation="38.5"/>
<feColorMatrix type="matrix" values="0 0 0 0 0 0 0 0 0 0 0 0 0 0 0 0 0 0 0.0240111 0"/>
<feBlend mode="normal" in2="BackgroundImageFix" result="effect1_dropShadow"/>
<feBlend mode="normal" in="SourceGraphic" in2="effect1_dropShadow" result="shape"/>
</filter>
<linearGradient id="paint0_linear" x1="-594.838" y1="276.303" x2="76.6887" y2="1552.03" gradientUnits="userSpaceOnUse">
<stop stop-color="#33D35E"/>
<stop offset="1" stop-color="#2AB6D9"/>
</linearGradient>
</defs>
</svg>
