<svg width="1440" height="1491" viewBox="0 0 1440 1491" fill="none" xmlns="http://www.w3.org/2000/svg">
<g filter="url(#filter0_d)">
<path fill-rule="evenodd" clip-rule="evenodd" d="M41.054 743.514C-12.4722 743.514 -39.2768 808.231 -1.42613 846.078L210.885 1058.37C229.638 1077.12 255.072 1087.65 281.592 1087.65H425.523C452.043 1087.65 477.477 1098.19 496.23 1116.94L762.033 1382.71C780.787 1401.47 806.22 1412 832.74 1412H1475.73C1564.83 1412 1609.44 1304.28 1546.44 1241.29L1384.27 1079.13C1355.6 1050.46 1375.9 1001.44 1416.45 1001.44V1001.44C1456.99 1001.44 1477.3 952.421 1448.63 923.752L1146.14 621.298C1127.39 602.546 1101.95 592.012 1075.43 592.012H689.64C663.12 592.012 637.686 581.478 618.933 562.726L538.919 482.721C520.166 463.969 494.732 453.435 468.212 453.435H101.127C25.4333 453.435 -12.4722 544.954 41.054 598.475L83.5342 640.95C121.385 678.797 94.5802 743.514 41.054 743.514V743.514Z" fill="#2D314D"/>
</g>
<path fill-rule="evenodd" clip-rule="evenodd" d="M244.883 290.079C191.357 290.079 164.553 354.796 202.403 392.642L414.714 604.932C433.467 623.683 458.901 634.217 485.421 634.217H629.353C655.873 634.217 681.306 644.752 700.06 663.503L965.863 929.279C984.616 948.031 1010.05 958.565 1036.57 958.565H1679.56C1768.65 958.565 1813.27 850.846 1750.27 787.851L1588.1 625.698C1559.43 597.029 1579.73 548.007 1620.28 548.007V548.007C1660.82 548.007 1681.13 498.986 1652.46 470.317L1349.97 167.862C1331.22 149.111 1305.78 138.577 1279.26 138.577H893.469C866.949 138.577 841.515 128.042 822.762 109.291L742.749 29.2858C723.995 10.5343 698.561 0 672.042 0H304.956C229.263 0 191.357 91.5186 244.883 145.039L287.364 187.515C325.214 225.362 298.41 290.079 244.883 290.079V290.079Z" fill="url(#paint0_linear)"/>
<defs>
<filter id="filter0_d" x="-96.1454" y="378.435" width="1749.08" height="1112.56" filterUnits="userSpaceOnUse" color-interpolation-filters="sRGB">
<feFlood flood-opacity="0" result="BackgroundImageFix"/>
<feColorMatrix in="SourceAlpha" type="matrix" values="0 0 0 0 0 0 0 0 0 0 0 0 0 0 0 0 0 0 127 0"/>
<feOffset dy="2"/>
<feGaussianBlur stdDeviation="38.5"/>
<feColorMatrix type="matrix" values="0 0 0 0 0 0 0 0 0 0 0 0 0 0 0 0 0 0 0.0240111 0"/>
<feBlend mode="normal" in2="BackgroundImageFix" result="effect1_dropShadow"/>
<feBlend mode="normal" in="SourceGraphic" in2="effect1_dropShadow" result="shape"/>
</filter>
<linearGradient id="paint0_linear" x1="-806.935" y1="477.271" x2="-20.0852" y2="1972.2" gradientUnits="userSpaceOnUse">
<stop stop-color="#33D35E"/>
<stop offset="1" stop-color="#2AB6D9"/>
</linearGradient>
</defs>
</svg>
