<svg width="1440" height="1242" viewBox="0 0 1440 1242" fill="none" xmlns="http://www.w3.org/2000/svg">
<g filter="url(#filter0_d)">
<path fill-rule="evenodd" clip-rule="evenodd" d="M63.7794 592.514C18.1022 592.514 -4.77273 647.74 27.5263 680.039L204.405 856.914C223.159 875.667 248.594 886.202 275.115 886.202H385.783C412.304 886.202 437.739 896.737 456.493 915.491L674.719 1133.71C693.472 1152.46 718.907 1163 745.429 1163H1252.64C1341.73 1163 1386.35 1055.28 1323.35 992.288L1209.99 878.929C1185.52 854.463 1202.85 812.63 1237.45 812.63V812.63C1272.05 812.63 1289.38 770.798 1264.91 746.332L1011.08 492.511C992.329 473.758 966.894 463.223 940.373 463.223H623.316C596.795 463.223 571.36 452.687 552.606 433.934L492.921 374.25C474.167 355.497 448.732 344.961 422.211 344.961H115.048C50.4518 344.961 18.1022 423.062 63.7794 468.738L100.032 504.99C132.332 537.288 109.457 592.514 63.7794 592.514V592.514Z" fill="#2D314D"/>
</g>
<path fill-rule="evenodd" clip-rule="evenodd" d="M237.714 205.553C192.037 205.553 169.162 260.779 201.461 293.077L378.34 469.952C397.093 488.705 422.528 499.241 449.05 499.241H559.717C586.239 499.241 611.674 509.776 630.427 528.529L848.653 746.75C867.407 765.503 892.842 776.039 919.363 776.039H1426.57C1515.67 776.039 1560.28 668.323 1497.28 605.327L1383.92 491.967C1359.46 467.502 1376.78 425.669 1411.38 425.669V425.669C1445.98 425.669 1463.31 383.837 1438.84 359.371L1185.02 105.55C1166.26 86.7966 1140.83 76.2613 1114.31 76.2613H797.25C770.729 76.2613 745.294 65.7259 726.541 46.9728L666.855 -12.7115C648.101 -31.4646 622.666 -42 596.145 -42H288.983C224.386 -42 192.037 36.1004 237.714 81.7765L273.967 118.029C306.266 150.327 283.391 205.553 237.714 205.553V205.553Z" fill="url(#paint0_linear)"/>
<defs>
<filter id="filter0_d" x="-64.5936" y="269.961" width="1494.43" height="972.039" filterUnits="userSpaceOnUse" color-interpolation-filters="sRGB">
<feFlood flood-opacity="0" result="BackgroundImageFix"/>
<feColorMatrix in="SourceAlpha" type="matrix" values="0 0 0 0 0 0 0 0 0 0 0 0 0 0 0 0 0 0 127 0"/>
<feOffset dy="2"/>
<feGaussianBlur stdDeviation="38.5"/>
<feColorMatrix type="matrix" values="0 0 0 0 0 0 0 0 0 0 0 0 0 0 0 0 0 0 0.0240111 0"/>
<feBlend mode="normal" in2="BackgroundImageFix" result="effect1_dropShadow"/>
<feBlend mode="normal" in="SourceGraphic" in2="effect1_dropShadow" result="shape"/>
</filter>
<linearGradient id="paint0_linear" x1="-659.838" y1="365.303" x2="11.6887" y2="1641.03" gradientUnits="userSpaceOnUse">
<stop stop-color="#33D35E"/>
<stop offset="1" stop-color="#2AB6D9"/>
</linearGradient>
</defs>
</svg>
